# xmcd CD database file
#
# Track frame offsets:
#	150
#	16110
#	30233
#	48127
#	66381
#	84475
#	100599
#	119333
#	139319
#	151163
#
# Disc length: 2242 seconds
#
# Revision: 0
# Processed by: cddbd v1.5.2PL0 Copyright (c) Steve Scherf et al.
# Submitted via: CDex 1.70beta2
#
DISCID=7008c00a
DTITLE=Billy Payne - Back To The Simple Life
DYEAR=2005
DGENRE=Country
TTITLE0=Blue Skies Mountan Air And Clear Water
TTITLE1=Another Cold One
TTITLE2=Somebody's Gonna Get Hurt
TTITLE3=She's In Love In Tennessee
TTITLE4=She's So Hot
TTITLE5=Back To The Simple Life
TTITLE6=Doctor Jesus
TTITLE7=Wake Up And Smell The Whiskey
TTITLE8=Triple On The Double
TTITLE9=Write It Lefty
EXTD=YEAR: 2005
EXTT0=
EXTT1=
EXTT2=
EXTT3=
EXTT4=
EXTT5=
EXTT6=
EXTT7=
EXTT8=
EXTT9=
PLAYORDER=
